{
  "accessors": [
    {
      "bufferView": 2,
      "componentType": 5126,
      "count": 11161,
      "max": [
        20.310041427612305,
        22.767116546630859,
        71.080024719238281
      ],
      "min": [
        -10.399970054626465,
        -14.93876838684082,
        -34.585601806640625
      ],
      "type": "VEC3"
    },
    {
      "bufferView": 2,
      "byteOffset": 133932,
      "componentType": 5126,
      "count": 11161,
      "max": [
        1,
        1,
        0.9999966025352478
      ],
      "min": [
        -1,
        -1,
        -0.99999183416366577
      ],
      "type": "VEC3"
    },
    {
      "bufferView": 3,
      "componentType": 5126,
      "count": 11161,
      "max": [
        1,
        1,
        0.99999725818634033,
        1
      ],
      "min": [
        -1,
        -1,
        -1,
        -1
      ],
      "type": "VEC4"
    },
    {
      "bufferView": 1,
      "componentType": 5126,
      "count": 11161,
      "max": [
        0.99938112497329712,
        0.99950003623962402
      ],
      "min": [
        0.00050000002374872565,
        0.00050000002374872565
      ],
      "type": "VEC2"
    },
    {
      "bufferView": 0,
      "componentType": 5125,
      "count": 16074,
      "max": [
        11160
      ],
      "min": [
        0
      ],
      "type": "SCALAR"
    }
  ],
  "asset": {
    "extras": {
      "author": "Ali.h (https://sketchfab.com/alihaghshenas821)",
      "license": "CC-BY-4.0 (http://creativecommons.org/licenses/by/4.0/)",
      "source": "https://sketchfab.com/3d-models/sci-fi-pistol-game-ready-1613f084d05d461ca9dd87dde66cdb3b",
      "title": "Sci-fi Pistol Game-Ready"
    },
    "generator": "Sketchfab-7.53.0",
    "version": "2.0"
  },
  "bufferViews": [
    {
      "buffer": 0,
      "byteLength": 64296,
      "byteOffset": 0,
      "name": "floatBufferViews",
      "target": 34963
    },
    {
      "buffer": 0,
      "byteLength": 89288,
      "byteOffset": 64296,
      "byteStride": 8,
      "name": "floatBufferViews",
      "target": 34962
    },
    {
      "buffer": 0,
      "byteLength": 267864,
      "byteOffset": 153584,
      "byteStride": 12,
      "name": "floatBufferViews",
      "target": 34962
    },
    {
      "buffer": 0,
      "byteLength": 178576,
      "byteOffset": 421448,
      "byteStride": 16,
      "name": "floatBufferViews",
      "target": 34962
    }
  ],
  "buffers": [
    {
      "byteLength": 600024,
      "uri": "scene.bin"
    }
  ],
  "images": [
    {
      "uri": "textures/02_-_Defaultred_baseColor.png"
    },
    {
      "uri": "textures/02_-_Defaultred_metallicRoughness.png"
    },
    {
      "uri": "textures/02_-_Defaultred_normal.png"
    }
  ],
  "materials": [
    {
      "doubleSided": true,
      "emissiveFactor": [
        0,
        0,
        0
      ],
      "name": "02_-_Defaultred",
      "normalTexture": {
        "index": 2,
        "scale": 1,
        "texCoord": 0
      },
      "pbrMetallicRoughness": {
        "baseColorFactor": [
          1,
          1,
          1,
          1
        ],
        "baseColorTexture": {
          "index": 0,
          "texCoord": 0
        },
        "metallicFactor": 0.86147103658536583,
        "metallicRoughnessTexture": {
          "index": 1,
          "texCoord": 0
        },
        "roughnessFactor": 0.87976371951219512
      }
    }
  ],
  "meshes": [
    {
      "name": "gun_low_02 - Defaultred_0",
      "primitives": [
        {
          "attributes": {
            "NORMAL": 1,
            "POSITION": 0,
            "TANGENT": 2,
            "TEXCOORD_0": 3
          },
          "indices": 4,
          "material": 0,
          "mode": 4
        }
      ]
    }
  ],
  "nodes": [
    {
      "children": [
        1
      ],
      "name": "RootNode (gltf orientation matrix)",
      "rotation": [
        -0.70710678118654746,
        -0,
        -0,
        0.70710678118654757
      ]
    },
    {
      "children": [
        2
      ],
      "name": "RootNode (model correction matrix)"
    },
    {
      "children": [
        3
      ],
      "matrix": [
        1,
        0,
        0,
        0,
        0,
        0,
        1,
        0,
        0,
        -1,
        0,
        0,
        0,
        0,
        0,
        1
      ],
      "name": "e4228219780d4e4181b3db8b5fc00f78.fbx"
    },
    {
      "children": [
        4
      ],
      "name": "RootNode"
    },
    {
      "children": [
        5
      ],
      "matrix": [
        -0.27136889150817972,
        0.45805895414174075,
        0.36902177402835101,
        0,
        0.27630791348807943,
        0.45803849014295134,
        -0.36536396777222629,
        0,
        -0.17025163334599763,
        0.0014248462080718347,
        -0.12696719781863866,
        0,
        21.319057464599609,
        -12.666195869445801,
        0.33946561813354492,
        1
      ],
      "name": "gun_low"
    },
    {
      "children": [
        6
      ],
      "matrix": [
        1,
        0,
        -0,
        0,
        0,
        1,
        0,
        0,
        0,
        0,
        1,
        0,
        7.8678131103515625e-06,
        0.10505127906799316,
        -4.0997262001037598,
        1
      ],
      "name": ""
    },
    {
      "mesh": 0,
      "name": "gun_low_02 - Defaultred_0"
    }
  ],
  "samplers": [
    {
      "magFilter": 9729,
      "minFilter": 9987,
      "wrapS": 10497,
      "wrapT": 10497
    }
  ],
  "scene": 0,
  "scenes": [
    {
      "name": "OSG_Scene",
      "nodes": [
        0
      ]
    }
  ],
  "textures": [
    {
      "sampler": 0,
      "source": 0
    },
    {
      "sampler": 0,
      "source": 1
    },
    {
      "sampler": 0,
      "source": 2
    }
  ]
}

